<?xml version="1.0" encoding="utf-8"?>
<!-- Generator: Adobe Illustrator 25.2.1, SVG Export Plug-In . SVG Version: 6.00 Build 0)  -->
<svg version="1.1" id="图层_1" xmlns="http://www.w3.org/2000/svg" xmlns:xlink="http://www.w3.org/1999/xlink" x="0px" y="0px"
	 viewBox="0 0 200 200" style="enable-background:new 0 0 200 200;" xml:space="preserve" fill="white">
<style type="text/css">
	.st0{fill:white;}
</style>
<g>
	<path class="st0" d="M63.9,119.5h-3c-3.2,0-5.9,2.7-5.9,5.9c0,3.2,2.7,5.9,5.9,5.9h3c3.2,0,5.9-2.7,5.9-5.9
		C69.8,122.2,67.1,119.5,63.9,119.5z"/>
	<path class="st0" d="M104.3,119.5h-3c-3.2,0-5.9,2.7-5.9,5.9c0,3.2,2.7,5.9,5.9,5.9h3c3.2,0,5.9-2.7,5.9-5.9
		C110.1,122.2,107.5,119.5,104.3,119.5z"/>
	<path class="st0" d="M84.7,119.5h-3c-3.2,0-5.9,2.7-5.9,5.9c0,3.2,2.7,5.9,5.9,5.9h3c3.2,0,5.9-2.7,5.9-5.9
		C90.5,122.2,87.9,119.5,84.7,119.5z"/>
	<path class="st0" d="M158.5,98.2h-11.6V54.7c0-3.6-2.9-6.5-6.5-6.5h-0.5c-3.6,0-6.5,2.9-6.5,6.5v43.5H68.5V54.7
		c0-3.6-2.9-6.5-6.5-6.5h-0.5c-3.6,0-6.5,2.9-6.5,6.5v43.5H42.5c0,0,0,0,0,0c-6.6,0-12,5.4-12,12v6v24.4c0,6.6,5.4,12,12,12h22.6
		h70.8h22.6c6.6,0,12-5.4,12-12v-24.4v-6l0,0C170.5,103.6,165.2,98.2,158.5,98.2z M138.2,54.7c0-0.9,0.8-1.7,1.7-1.7h0.5
		c0.9,0,1.7,0.8,1.7,1.7v43.5v4.9v4.4c0,0.9-0.8,1.7-1.7,1.7h-0.5c-0.9,0-1.7-0.8-1.7-1.7v-4.4v-4.9V54.7z M59.8,54.7
		c0-0.9,0.8-1.7,1.7-1.7h0.5c0.9,0,1.7,0.8,1.7,1.7v52.8c0,0.9-0.8,1.7-1.7,1.7h-0.5c-0.9,0-1.7-0.8-1.7-1.7V54.7z M165.7,140.7
		c0,3.9-3.3,7.2-7.2,7.2h-24.2l0,0H42.5c-3.9,0-7.2-3.3-7.2-7.2v-25.8l0,0v-4.6c0-3.9,3.3-7.2,7.2-7.2h12.6v4.3
		c0,3.6,2.9,6.5,6.5,6.5h0.5c3.5,0,6.4-2.8,6.5-6.4v-4.4h64.9v4.3c0,3.6,2.9,6.5,6.5,6.5h0.5c3.5,0,6.4-2.8,6.5-6.4v-4.4h11.6
		c0.4,0,0.8,0,1.2,0.1c3.3,0.6,5.9,3.6,5.9,7.1v4.6l0,0V140.7z"/>
</g>
</svg>
