<?xml version="1.0" encoding="utf-8"?>
<!-- Generator: Adobe Illustrator 25.2.1, SVG Export Plug-In . SVG Version: 6.00 Build 0)  -->
<svg version="1.1" id="图层_1" xmlns="http://www.w3.org/2000/svg" xmlns:xlink="http://www.w3.org/1999/xlink" x="0px" y="0px"
	 viewBox="0 0 200 200" style="enable-background:new 0 0 200 200;" xml:space="preserve">
<style type="text/css">
	.st0{fill:#333333;}
</style>
<g>
	<g>
		<path class="st0" d="M119.7,73.9l0.3-39.1c0-2.7-2.2-4.8-4.8-4.8h-0.4c-2.7,0-4.8,2.2-4.8,4.8V67v3.6v3.2l3.5,0.1v-3.3V67V34.8
			c0-0.7,0.6-1.2,1.2-1.2h0.4c0.7,0,1.2,0.6,1.2,1.2V67v3.6v3.3 M88.4,73.9v-3.3V67V34.8c0-2.7-2.2-4.8-4.8-4.8h-0.4
			c-2.7,0-4.8,2.2-4.8,4.8V67v3.6v3.2l3.5,0.1V34.8c0-0.7,0.6-1.2,1.2-1.2h0.4c0.7,0,1.2,0.6,1.2,1.2v39.1"/>
	</g>
	<path class="st0" d="M97,95.7C97,95.7,97,95.7,97,95.7c0-4.9-4-8.9-8.9-8.9H67.7c-4.9,0-8.9,4-8.9,8.9v56.6c0,4.9,4,8.9,8.9,8.9
		h23.7c4.9,0,5.5-3.9,5.5-8.9 M93.4,152.3c0,0.3,0,0.6-0.1,0.9c-0.4,2.5-2.7,4.4-5.2,4.4H67.6c-2.9,0-5.3-2.4-5.3-5.3V95.7
		c0-2.9,2.4-5.3,5.3-5.3H88c2.9,0,5.3,2.4,5.3,5.3"/>
	<path class="st0" d="M141.2,95.7C141.2,95.7,141.2,95.7,141.2,95.7c0-4.9-4-8.9-8.9-8.9h-20.4c-4.9,0-8.9,4-8.9,8.9v56.6
		c0,4.9,4,8.9,8.9,8.9h20.4c4.9,0,8.9-3.9,8.9-8.9 M137.6,152.3c0,0.3,0,0.6-0.1,0.9c-0.4,2.5-2.7,4.4-5.2,4.4h-20.4
		c-2.9,0-5.3-2.4-5.3-5.3V95.7c0-2.9,2.4-5.3,5.3-5.3h20.4c2.9,0,5.3,2.4,5.3,5.3"/>
	<g>
		<path class="st0" d="M128.2,158.5v2.6c0,0.3,0,0.6-0.1,0.9c-0.4,2.5-2.7,4.4-5.2,4.4H78.6c-2.9,0-5.3-2.4-5.3-5.3v-2.6h-3.5v2.6
			c0,4.9,4,8.9,8.9,8.9h44.3c4.9,0,8.9-3.9,8.9-8.9v-2.6H128.2z"/>
		<path class="st0" d="M73.3,89.4v-8.7c0-2.9,2.4-5.3,5.3-5.3h44.3c2.9,0,5.3,2.4,5.3,5.3v8.7h3.6v-8.7c0,0,0,0,0,0
			c0-4.9-4-8.9-8.9-8.9H78.7c-4.9,0-8.9,4-8.9,8.9v8.7H73.3z"/>
	</g>
</g>
</svg>
