<?xml version="1.0" encoding="utf-8"?>
<!-- Generator: Adobe Illustrator 23.0.0, SVG Export Plug-In . SVG Version: 6.00 Build 0)  -->
<svg version="1.1" id="图层_1" xmlns="http://www.w3.org/2000/svg" xmlns:xlink="http://www.w3.org/1999/xlink" x="0px" y="0px"
	 viewBox="0 0 56 56" style="enable-background:new 0 0 56 56;" xml:space="preserve">
<style type="text/css">
	.st0{fill:#E4EEFE;}
	.st1{display:none;}
	.st2{display:inline;}
	.st3{fill:#D8D8D8;}
	.st4{opacity:0.5;fill:url(#SVGID_1_);}
	.st5{opacity:0.5;fill:url(#SVGID_2_);}
	.st6{fill:none;stroke:#1B3B65;stroke-width:1.6;stroke-linecap:round;stroke-linejoin:round;stroke-miterlimit:10;}
	.st7{opacity:0.5;fill:url(#SVGID_3_);}
	.st8{opacity:0.5;fill:url(#SVGID_4_);}
	.st9{display:none;opacity:0.5;fill:url(#SVGID_5_);}
	.st10{display:none;fill:#E4EEFE;}
	.st11{opacity:0.5;}
	.st12{fill:url(#SVGID_6_);}
	.st13{fill:#1B3B65;}
	.st14{fill:url(#SVGID_7_);}
	.st15{fill:url(#SVGID_8_);}
	.st16{fill:url(#SVGID_9_);}
	.st17{fill:url(#SVGID_10_);}
	.st18{fill:#FFFFFF;}
	.st19{fill:url(#SVGID_11_);}
	.st20{display:inline;fill:#E4EEFE;}
	.st21{display:none;fill:#1B3B65;}
	.st22{opacity:0.5;fill:url(#SVGID_12_);}
	.st23{fill:url(#SVGID_13_);}
	.st24{fill:none;stroke:#FFFFFF;stroke-width:2;stroke-linecap:round;stroke-miterlimit:10;}
	.st25{fill:none;stroke:#FFFFFF;stroke-width:2;stroke-linecap:square;stroke-miterlimit:10;}
	.st26{fill:none;stroke:#1B3B65;stroke-width:1.6;stroke-linecap:round;stroke-miterlimit:10;}
	.st27{fill:url(#SVGID_14_);}
	.st28{fill:url(#SVGID_15_);}
	.st29{fill:none;stroke:#FFFFFF;stroke-width:1.6;stroke-linecap:square;stroke-miterlimit:10;}
	.st30{fill:url(#SVGID_16_);}
	.st31{fill:none;stroke:#1B3B65;stroke-width:1.6;stroke-miterlimit:10;}
	.st32{fill:url(#SVGID_17_);}
	.st33{fill:url(#SVGID_18_);}
	.st34{fill:url(#SVGID_19_);}
	.st35{fill:url(#SVGID_20_);}
	.st36{fill:url(#SVGID_21_);}
	.st37{opacity:0.4;fill:#BDD8FF;}
	.st38{fill:none;stroke:#727171;stroke-width:2.6311;stroke-linecap:round;stroke-linejoin:round;stroke-miterlimit:10;}
	.st39{fill:none;stroke:#727171;stroke-width:2.46;stroke-linecap:round;stroke-linejoin:round;stroke-miterlimit:10;}
	.st40{fill:#3A80FC;}
	.st41{fill:#727171;}
	.st42{fill:none;stroke:#00E1B4;stroke-width:2.1095;stroke-linecap:round;stroke-linejoin:round;stroke-miterlimit:10;}
	.st43{fill:none;stroke:#264A9A;stroke-width:2;stroke-linecap:round;stroke-linejoin:round;stroke-miterlimit:10;}
	.st44{fill:#264A9A;}
	.st45{fill:none;stroke:#264A9A;stroke-width:2.46;stroke-linecap:round;stroke-linejoin:round;stroke-miterlimit:10;}
	.st46{fill:none;stroke:#727171;stroke-width:2.46;stroke-linecap:round;stroke-linejoin:round;stroke-dasharray:34.5421,23.0282;}
	.st47{fill:#4FE8FF;}
	.st48{display:none;fill:#FFFFFF;}
	.st49{fill:url(#SVGID_22_);}
	.st50{fill:none;stroke:#1B3B65;stroke-width:1.6;stroke-linecap:round;stroke-linejoin:round;stroke-dasharray:13.9698,9.3132;}
	.st51{fill:url(#SVGID_23_);}
	.st52{fill:#4FD6FF;}
	.st53{fill:none;stroke:#FFFFFF;stroke-width:1.6;stroke-linecap:round;stroke-linejoin:round;}
	.st54{fill:none;stroke:#FFFFFF;stroke-width:1.6;stroke-linecap:round;stroke-linejoin:round;stroke-dasharray:0,4.5505;}
	.st55{fill:none;stroke:#FFFFFF;stroke-width:1.6;stroke-linecap:round;stroke-linejoin:round;stroke-dasharray:0,4.5504;}
	.st56{fill:none;stroke:#264A9A;stroke-width:1.0762;stroke-linecap:round;stroke-linejoin:round;stroke-miterlimit:10;}
	.st57{fill:none;}
	.st58{fill:url(#SVGID_24_);}
	.st59{fill:url(#SVGID_25_);stroke:#1B3B65;stroke-width:2;stroke-linecap:round;stroke-miterlimit:10;}
	.st60{fill:none;stroke:#00E1B4;stroke-width:2.132;stroke-linecap:square;stroke-miterlimit:10;}
	.st61{fill:none;stroke:url(#SVGID_26_);stroke-width:2;stroke-linecap:round;stroke-miterlimit:10;}
	.st62{fill:none;stroke:#1B3B65;stroke-width:2;stroke-linecap:round;stroke-miterlimit:10;}
	.st63{fill:url(#SVGID_27_);}
	.st64{fill:url(#SVGID_28_);}
	.st65{fill:none;stroke:#DEE56B;stroke-width:1.4;stroke-linecap:round;stroke-miterlimit:10;}
	.st66{fill:url(#SVGID_29_);}
	.st67{fill-rule:evenodd;clip-rule:evenodd;fill:#1B3B65;}
	.st68{fill:url(#SVGID_30_);}
	.st69{fill:url(#SVGID_31_);}
	.st70{fill:url(#SVGID_32_);}
	.st71{fill:url(#SVGID_33_);}
	.st72{fill:url(#SVGID_34_);}
	.st73{fill:url(#SVGID_35_);}
	.st74{fill:url(#SVGID_36_);}
	.st75{fill:url(#SVGID_37_);}
	.st76{fill:url(#SVGID_38_);}
	.st77{opacity:0.5;fill:url(#SVGID_39_);}
	.st78{fill:url(#SVGID_40_);}
	.st79{fill:none;stroke:url(#SVGID_41_);stroke-width:1.6;stroke-linecap:round;stroke-miterlimit:10;}
	.st80{fill:none;stroke:url(#SVGID_42_);stroke-width:1.6;stroke-linecap:round;stroke-miterlimit:10;}
	.st81{fill:none;stroke:url(#SVGID_43_);stroke-width:1.6;stroke-linecap:round;stroke-miterlimit:10;}
	.st82{fill:url(#SVGID_44_);}
	.st83{fill:url(#SVGID_45_);}
	.st84{fill:#FCFCFC;}
	.st85{fill:none;stroke:#FFFFFF;stroke-width:1.6;stroke-linecap:round;stroke-miterlimit:10;}
	.st86{fill:url(#SVGID_46_);}
	.st87{fill:url(#SVGID_47_);}
	.st88{fill:url(#SVGID_48_);stroke:#FFFFFF;stroke-width:1.6;stroke-miterlimit:10;}
	.st89{fill:none;stroke:#FFFFFF;stroke-width:1.6;stroke-miterlimit:10;}
	.st90{fill:url(#SVGID_49_);}
	.st91{fill:none;stroke:#E4EEFE;stroke-width:1.6;stroke-miterlimit:10;}
</style>
<circle class="st0" cx="34" cy="34" r="20"/>
<g class="st1">
	<circle class="st20" cx="36" cy="36" r="18"/>
</g>
<g class="st1">
	<g class="st2">
		<path class="st3" d="M28,0c0,0-0.01,0-0.01,0h0c0,0-0.01,0-0.01,0h0c0,0-0.01,0-0.01,0c-0.01,0-0.01,0-0.02,0
			c-0.05,0-0.1,0.05-0.1,0.1c0,0.06,0.04,0.1,0.1,0.1c0,0,0,0,0,0l0.05,0c0.06,0,0.1-0.04,0.1-0.1S28.06,0,28,0C28,0,28,0,28,0L28,0
			z M25.95,0.07C25.95,0.07,25.95,0.07,25.95,0.07c-0.01,0-0.02,0-0.03,0c0,0,0,0,0,0c0,0,0,0-0.01,0c0,0-0.01,0-0.01,0
			c0,0,0,0-0.01,0c0,0-0.01,0-0.01,0l0,0c-0.06,0-0.1,0.05-0.09,0.11c0,0.05,0.05,0.09,0.1,0.09c0,0,0.01,0,0.01,0l0.05,0
			c0.06,0,0.1-0.05,0.09-0.11C26.05,0.11,26.01,0.07,25.95,0.07L25.95,0.07z M23.92,0.3c0,0-0.01,0-0.01,0
			c-0.02,0-0.04,0.01-0.06,0.01c-0.05,0.01-0.09,0.06-0.08,0.11c0.01,0.05,0.05,0.09,0.1,0.09c0,0,0.01,0,0.01,0l0.05-0.01
			c0.05-0.01,0.09-0.06,0.08-0.11C24.01,0.33,23.97,0.3,23.92,0.3L23.92,0.3z M21.91,0.67c-0.01,0-0.01,0-0.02,0c0,0-0.01,0-0.01,0
			c-0.01,0-0.03,0.01-0.04,0.01c-0.05,0.01-0.09,0.07-0.07,0.12c0.01,0.05,0.05,0.08,0.1,0.08c0.01,0,0.01,0,0.02,0l0.05-0.01
			C21.98,0.85,22.02,0.8,22,0.75C21.99,0.7,21.95,0.67,21.91,0.67L21.91,0.67z M19.93,1.19c-0.01,0-0.02,0-0.03,0c0,0,0,0-0.01,0
			c-0.01,0-0.02,0.01-0.03,0.01c0,0,0,0,0,0c-0.01,0-0.01,0-0.02,0c-0.05,0.02-0.08,0.07-0.07,0.12c0.01,0.04,0.05,0.07,0.1,0.07
			c0.01,0,0.02,0,0.03,0l0.05-0.02c0.05-0.02,0.08-0.07,0.07-0.12C20.01,1.21,19.97,1.19,19.93,1.19L19.93,1.19z M17.99,1.85
			c-0.01,0-0.02,0-0.03,0.01c-0.02,0.01-0.03,0.01-0.05,0.02c-0.05,0.02-0.08,0.08-0.06,0.13c0.02,0.04,0.05,0.06,0.09,0.06
			c0.01,0,0.02,0,0.04-0.01l0.05-0.02c0.05-0.02,0.08-0.08,0.06-0.13C18.07,1.87,18.03,1.85,17.99,1.85L17.99,1.85z M16.11,2.65
			c-0.01,0-0.03,0-0.04,0.01c-0.02,0.01-0.03,0.02-0.05,0.02c-0.05,0.02-0.07,0.08-0.05,0.13c0.02,0.04,0.05,0.06,0.09,0.06
			c0.01,0,0.03,0,0.04-0.01l0.05-0.02c0.05-0.02,0.07-0.08,0.05-0.13C16.18,2.68,16.14,2.65,16.11,2.65L16.11,2.65z M14.29,3.6
			c-0.02,0-0.03,0-0.05,0.01l0,0c-0.01,0.01-0.02,0.01-0.03,0.02c0,0,0,0,0,0c0,0,0,0,0,0c0,0-0.01,0-0.01,0.01
			c-0.05,0.03-0.06,0.09-0.04,0.14c0.02,0.03,0.05,0.05,0.09,0.05c0.02,0,0.03,0,0.05-0.01l0.05-0.03c0.05-0.03,0.06-0.09,0.04-0.14
			C14.36,3.61,14.32,3.6,14.29,3.6L14.29,3.6z M12.54,4.67c-0.02,0-0.04,0.01-0.06,0.02c0,0,0,0,0,0c0,0,0,0,0,0c0,0,0,0-0.01,0
			c0,0,0,0,0,0c-0.01,0.01-0.02,0.01-0.03,0.02c-0.05,0.03-0.06,0.09-0.03,0.14c0.02,0.03,0.05,0.04,0.08,0.04
			c0.02,0,0.04-0.01,0.06-0.02l0.05-0.03c0.05-0.03,0.06-0.09,0.03-0.14C12.61,4.68,12.58,4.67,12.54,4.67L12.54,4.67z M10.88,5.87
			c-0.02,0-0.04,0.01-0.06,0.02c0,0,0,0-0.01,0c-0.01,0.01-0.02,0.01-0.03,0.02c0,0-0.01,0-0.01,0.01c-0.04,0.03-0.05,0.1-0.02,0.14
			c0.02,0.03,0.05,0.04,0.08,0.04c0.02,0,0.04-0.01,0.06-0.02l0.04-0.03c0.04-0.03,0.05-0.1,0.02-0.14
			C10.94,5.88,10.91,5.87,10.88,5.87L10.88,5.87z M9.31,7.18c-0.02,0-0.05,0.01-0.07,0.03C9.24,7.21,9.23,7.22,9.22,7.23
			c0,0,0,0-0.01,0.01c0,0,0,0,0,0c0,0-0.01,0.01-0.01,0.01C9.17,7.28,9.16,7.34,9.2,7.38c0.02,0.02,0.05,0.03,0.07,0.03
			c0.02,0,0.05-0.01,0.07-0.03l0.04-0.04c0.04-0.04,0.04-0.1,0.01-0.14C9.37,7.19,9.34,7.18,9.31,7.18L9.31,7.18z M7.85,8.61
			c-0.03,0-0.05,0.01-0.07,0.03c0,0,0,0,0,0c0,0,0,0,0,0c0,0,0,0,0,0C7.76,8.66,7.75,8.66,7.74,8.67c0,0,0,0-0.01,0.01
			c-0.04,0.04-0.04,0.1,0,0.14c0.02,0.02,0.04,0.03,0.07,0.03c0.03,0,0.05-0.01,0.07-0.03l0.04-0.04c0.04-0.04,0.04-0.1,0-0.14
			C7.9,8.62,7.87,8.61,7.85,8.61L7.85,8.61z M6.48,10.14c-0.03,0-0.06,0.01-0.08,0.04c0,0,0,0-0.01,0.01c0,0,0,0,0,0c0,0,0,0,0,0
			c-0.01,0.01-0.02,0.02-0.02,0.03c-0.04,0.04-0.03,0.11,0.01,0.14c0.02,0.02,0.04,0.02,0.06,0.02c0.03,0,0.06-0.01,0.08-0.04
			l0.03-0.04c0.04-0.04,0.03-0.11-0.01-0.14C6.53,10.14,6.51,10.14,6.48,10.14L6.48,10.14z M5.24,11.76c-0.03,0-0.06,0.01-0.08,0.04
			c-0.01,0.01-0.01,0.02-0.02,0.03c0,0.01-0.01,0.01-0.01,0.02c-0.03,0.05-0.02,0.11,0.02,0.14c0.02,0.01,0.04,0.02,0.06,0.02
			c0.03,0,0.06-0.01,0.08-0.04l0.03-0.04c0.03-0.04,0.02-0.11-0.02-0.14C5.28,11.77,5.26,11.76,5.24,11.76L5.24,11.76z M4.12,13.47
			c-0.03,0-0.07,0.02-0.09,0.05c-0.01,0.01-0.01,0.02-0.02,0.03c0,0.01-0.01,0.01-0.01,0.02c-0.03,0.05-0.01,0.11,0.03,0.14
			c0.02,0.01,0.03,0.01,0.05,0.01c0.03,0,0.07-0.02,0.09-0.05l0.03-0.05c0.03-0.05,0.01-0.11-0.03-0.14
			C4.15,13.48,4.13,13.47,4.12,13.47L4.12,13.47z M3.12,15.26c-0.04,0-0.07,0.02-0.09,0.05c0,0,0,0.01,0,0.01
			c-0.01,0.01-0.01,0.03-0.02,0.04c-0.02,0.05,0,0.11,0.04,0.13c0.01,0.01,0.03,0.01,0.05,0.01c0.04,0,0.07-0.02,0.09-0.05
			l0.02-0.05c0.03-0.05,0.01-0.11-0.04-0.13C3.15,15.26,3.14,15.26,3.12,15.26L3.12,15.26z M2.26,17.12c-0.04,0-0.08,0.02-0.09,0.06
			c0,0.01,0,0.01-0.01,0.02c0,0.01-0.01,0.02-0.01,0.04c-0.02,0.05,0,0.11,0.05,0.13c0.01,0.01,0.03,0.01,0.04,0.01
			c0.04,0,0.08-0.02,0.09-0.06l0.02-0.05c0.02-0.05,0-0.11-0.05-0.13C2.29,17.12,2.27,17.12,2.26,17.12L2.26,17.12z M1.54,19.03
			c-0.04,0-0.08,0.03-0.09,0.07c0,0,0,0,0,0.01c-0.01,0.02-0.01,0.03-0.02,0.05c-0.02,0.05,0.01,0.11,0.06,0.13
			c0.01,0,0.02,0.01,0.03,0.01c0.04,0,0.08-0.03,0.09-0.07l0.02-0.05c0.02-0.05-0.01-0.11-0.06-0.13
			C1.56,19.04,1.55,19.03,1.54,19.03L1.54,19.03z M0.96,21c-0.04,0-0.08,0.03-0.1,0.07c0,0,0,0.01,0,0.01
			c0,0.02-0.01,0.03-0.01,0.05c-0.01,0.05,0.02,0.11,0.07,0.12c0.01,0,0.02,0,0.02,0c0.04,0,0.09-0.03,0.1-0.08l0.01-0.05
			c0.01-0.05-0.02-0.11-0.07-0.12C0.98,21,0.97,21,0.96,21L0.96,21z M0.53,23c-0.05,0-0.09,0.03-0.1,0.08c0,0.01,0,0.02-0.01,0.03
			c0,0.01,0,0.02,0,0.02c-0.01,0.05,0.03,0.11,0.08,0.12c0.01,0,0.01,0,0.02,0c0.05,0,0.09-0.03,0.1-0.08l0.01-0.05
			C0.64,23.06,0.6,23.01,0.55,23C0.54,23,0.53,23,0.53,23L0.53,23z M0.25,25.03c-0.05,0-0.09,0.04-0.1,0.09c0,0,0,0.01,0,0.01
			c0,0,0,0,0,0c0,0,0,0.01,0,0.01c0,0,0,0,0,0c0,0.01,0,0.02,0,0.03c-0.01,0.05,0.03,0.1,0.09,0.11c0,0,0.01,0,0.01,0
			c0.05,0,0.09-0.04,0.1-0.09l0.01-0.05c0.01-0.05-0.03-0.1-0.09-0.11C0.25,25.03,0.25,25.03,0.25,25.03L0.25,25.03z M0.11,27.07
			c-0.05,0-0.1,0.04-0.1,0.1c0,0,0,0.01,0,0.02c0,0.01,0,0.03,0,0.04c0,0.06,0.04,0.1,0.1,0.1c0,0,0,0,0,0c0.05,0,0.1-0.04,0.1-0.1
			l0-0.05C0.21,27.12,0.17,27.07,0.11,27.07C0.11,27.07,0.11,27.07,0.11,27.07L0.11,27.07z M0.13,29.12
			C0.12,29.12,0.12,29.12,0.13,29.12c-0.06,0-0.1,0.05-0.1,0.1c0,0,0,0,0,0c0,0.01,0,0.02,0,0.04c0,0,0,0,0,0.01c0,0,0,0,0,0
			c0,0,0,0,0,0c0,0.05,0.05,0.09,0.1,0.09c0,0,0,0,0,0c0.06,0,0.1-0.05,0.1-0.1l0-0.05C0.22,29.16,0.18,29.12,0.13,29.12L0.13,29.12
			z M0.29,31.16c0,0-0.01,0-0.01,0c-0.05,0.01-0.09,0.06-0.09,0.11c0,0,0,0,0,0.01l0,0c0,0,0,0,0,0c0,0.01,0,0.01,0,0.02
			c0,0,0,0,0,0c0,0,0,0.01,0,0.01c0,0,0,0.01,0,0.01c0.01,0.05,0.05,0.09,0.1,0.09c0,0,0.01,0,0.01,0c0.05-0.01,0.09-0.06,0.09-0.11
			l-0.01-0.05C0.38,31.2,0.34,31.16,0.29,31.16L0.29,31.16z M0.6,33.18c-0.01,0-0.01,0-0.02,0c-0.05,0.01-0.09,0.06-0.08,0.12
			c0,0.01,0,0.02,0.01,0.04c0,0.01,0,0.01,0,0.02c0.01,0.05,0.05,0.08,0.1,0.08c0.01,0,0.01,0,0.02,0c0.05-0.01,0.09-0.06,0.08-0.12
			L0.7,33.26C0.69,33.22,0.65,33.18,0.6,33.18L0.6,33.18z M1.06,35.18c-0.01,0-0.02,0-0.03,0c-0.05,0.01-0.08,0.07-0.07,0.12
			c0,0,0,0.01,0,0.01c0,0.01,0.01,0.03,0.01,0.04c0.01,0.04,0.05,0.07,0.1,0.07c0.01,0,0.02,0,0.03,0c0.05-0.01,0.08-0.07,0.07-0.12
			l-0.01-0.05C1.14,35.21,1.1,35.18,1.06,35.18L1.06,35.18z M1.66,37.13c-0.01,0-0.02,0-0.03,0.01c-0.05,0.02-0.08,0.07-0.06,0.13
			c0,0,0,0,0,0.01c0,0,0,0,0,0c0,0,0,0,0,0.01c0,0.01,0.01,0.02,0.01,0.04c0.01,0.04,0.05,0.07,0.09,0.07c0.01,0,0.02,0,0.03-0.01
			c0.05-0.02,0.08-0.08,0.06-0.13L1.76,37.2C1.74,37.16,1.71,37.13,1.66,37.13L1.66,37.13z M2.41,39.04c-0.01,0-0.03,0-0.04,0.01
			c-0.05,0.02-0.07,0.08-0.05,0.13c0.01,0.01,0.01,0.03,0.02,0.04c0,0,0,0,0,0c0,0,0,0,0,0.01c0.02,0.04,0.05,0.06,0.09,0.06
			c0.01,0,0.03,0,0.04-0.01c0.05-0.02,0.07-0.08,0.05-0.13L2.5,39.1C2.49,39.06,2.45,39.04,2.41,39.04L2.41,39.04z M3.3,40.88
			c-0.02,0-0.03,0-0.05,0.01c-0.05,0.03-0.07,0.09-0.04,0.13c0,0.01,0.01,0.02,0.01,0.03c0,0,0.01,0.01,0.01,0.01c0,0,0,0,0,0.01
			c0.02,0.03,0.05,0.05,0.09,0.05c0.02,0,0.03,0,0.05-0.01c0.05-0.03,0.07-0.09,0.04-0.14l-0.03-0.05
			C3.37,40.9,3.33,40.88,3.3,40.88L3.3,40.88z M4.32,42.66c-0.02,0-0.04,0-0.05,0.02c-0.05,0.03-0.06,0.09-0.03,0.14
			c0,0,0.01,0.01,0.01,0.01c0,0.01,0.01,0.01,0.01,0.02c0,0,0,0,0,0c0,0,0,0,0,0.01c0,0,0,0,0,0.01c0.02,0.03,0.05,0.05,0.08,0.05
			c0.02,0,0.04,0,0.05-0.02c0.05-0.03,0.06-0.09,0.03-0.14L4.4,42.71C4.38,42.68,4.35,42.66,4.32,42.66L4.32,42.66z M5.47,44.35
			c-0.02,0-0.04,0.01-0.06,0.02c-0.04,0.03-0.05,0.1-0.02,0.14c0,0,0,0.01,0.01,0.01c0,0,0.01,0.01,0.01,0.01h0c0,0,0,0,0.01,0.01
			c0,0,0,0,0,0c0,0.01,0.01,0.01,0.01,0.02c0.02,0.03,0.05,0.04,0.08,0.04c0.02,0,0.04-0.01,0.06-0.02c0.04-0.03,0.05-0.1,0.02-0.14
			L5.55,44.4C5.53,44.37,5.5,44.35,5.47,44.35L5.47,44.35z M6.73,45.96c-0.02,0-0.05,0.01-0.06,0.02c-0.04,0.04-0.05,0.1-0.01,0.14
			c0.01,0.01,0.01,0.01,0.02,0.02c0,0.01,0.01,0.01,0.01,0.02c0,0,0,0,0,0c0.02,0.02,0.05,0.03,0.08,0.03
			c0.02,0,0.05-0.01,0.06-0.02c0.04-0.04,0.05-0.1,0.01-0.14L6.81,46C6.79,45.97,6.76,45.96,6.73,45.96L6.73,45.96z M8.12,47.47
			c-0.03,0-0.05,0.01-0.07,0.03c-0.04,0.04-0.04,0.1,0,0.14c0.01,0.01,0.01,0.01,0.02,0.02c0.01,0.01,0.01,0.01,0.02,0.02
			c0.02,0.02,0.05,0.03,0.07,0.03c0.03,0,0.05-0.01,0.07-0.03c0.04-0.04,0.04-0.1,0-0.14L8.19,47.5
			C8.17,47.48,8.14,47.47,8.12,47.47L8.12,47.47z M9.6,48.88c-0.03,0-0.06,0.01-0.08,0.03c-0.04,0.04-0.03,0.1,0.01,0.14
			c0,0,0,0,0,0c0.01,0.01,0.01,0.01,0.02,0.02c0,0,0,0,0,0c0,0,0,0,0,0c0.01,0,0.01,0.01,0.02,0.01c0.02,0.02,0.04,0.02,0.06,0.02
			c0.03,0,0.06-0.01,0.08-0.03c0.04-0.04,0.03-0.1-0.01-0.14L9.67,48.9C9.65,48.89,9.63,48.88,9.6,48.88L9.6,48.88z M11.19,50.17
			c-0.03,0-0.06,0.01-0.08,0.04c-0.03,0.04-0.02,0.11,0.02,0.14c0,0,0.01,0,0.01,0.01c0,0,0,0,0,0c0,0,0,0,0.01,0c0,0,0,0,0,0
			c0.01,0.01,0.01,0.01,0.02,0.02c0.02,0.01,0.04,0.02,0.06,0.02c0.03,0,0.06-0.01,0.08-0.04c0.03-0.04,0.02-0.11-0.02-0.14
			l-0.04-0.03C11.23,50.18,11.21,50.17,11.19,50.17L11.19,50.17z M12.87,51.34c-0.03,0-0.06,0.02-0.08,0.05
			c-0.03,0.05-0.02,0.11,0.03,0.14c0.01,0.01,0.03,0.02,0.04,0.03c0,0,0,0,0,0c0.02,0.01,0.04,0.02,0.05,0.02
			c0.03,0,0.06-0.02,0.08-0.05c0.03-0.05,0.02-0.11-0.03-0.14l-0.05-0.03C12.91,51.35,12.89,51.34,12.87,51.34L12.87,51.34z
			 M14.63,52.39c-0.04,0-0.07,0.02-0.09,0.05c-0.03,0.05-0.01,0.11,0.04,0.14c0.02,0.01,0.03,0.02,0.05,0.03
			c0.02,0.01,0.03,0.01,0.05,0.01c0.04,0,0.07-0.02,0.09-0.05c0.03-0.05,0.01-0.11-0.04-0.14l-0.05-0.03
			C14.66,52.4,14.64,52.39,14.63,52.39L14.63,52.39z M16.46,53.31c-0.04,0-0.07,0.02-0.09,0.06c-0.02,0.05,0,0.11,0.05,0.13
			c0.01,0.01,0.03,0.01,0.04,0.02c0,0,0.01,0,0.01,0.01c0.01,0.01,0.03,0.01,0.04,0.01c0.04,0,0.07-0.02,0.09-0.06
			c0.02-0.05,0-0.11-0.05-0.13l-0.05-0.02C16.49,53.31,16.47,53.31,16.46,53.31L16.46,53.31z M18.35,54.09
			c-0.04,0-0.08,0.03-0.09,0.07c-0.02,0.05,0.01,0.11,0.06,0.13c0.01,0,0.01,0,0.02,0.01c0.01,0,0.02,0.01,0.03,0.01c0,0,0,0,0.01,0
			c0.01,0,0.02,0.01,0.03,0.01c0.04,0,0.08-0.03,0.09-0.07c0.02-0.05-0.01-0.11-0.06-0.13l-0.05-0.02
			C18.38,54.09,18.36,54.09,18.35,54.09L18.35,54.09z M20.3,54.72c-0.04,0-0.08,0.03-0.1,0.07c-0.02,0.05,0.02,0.11,0.07,0.12
			c0,0,0,0,0.01,0c0.02,0,0.03,0.01,0.05,0.01c0,0,0,0,0,0c0.01,0,0.02,0,0.03,0c0.04,0,0.08-0.03,0.1-0.07
			c0.02-0.05-0.02-0.11-0.07-0.12l-0.05-0.01C20.32,54.72,20.31,54.72,20.3,54.72L20.3,54.72z M22.29,55.21
			c-0.05,0-0.09,0.03-0.1,0.08c-0.01,0.05,0.02,0.11,0.08,0.12c0.01,0,0.03,0.01,0.04,0.01c0.01,0,0.01,0,0.02,0
			c0.01,0,0.01,0,0.02,0c0.05,0,0.09-0.03,0.1-0.08c0.01-0.05-0.02-0.11-0.08-0.12l-0.05-0.01C22.3,55.21,22.29,55.21,22.29,55.21
			L22.29,55.21z M24.3,55.56c-0.05,0-0.09,0.04-0.1,0.09c-0.01,0.05,0.03,0.1,0.09,0.11c0,0,0.01,0,0.01,0c0.01,0,0.02,0,0.03,0
			c0,0,0.01,0,0.01,0c0,0,0.01,0,0.01,0c0.05,0,0.09-0.04,0.1-0.09c0.01-0.05-0.03-0.11-0.09-0.11l-0.05-0.01
			C24.31,55.56,24.31,55.56,24.3,55.56L24.3,55.56z M26.34,55.75c-0.05,0-0.1,0.04-0.1,0.09c0,0.06,0.04,0.1,0.09,0.11
			c0.01,0,0.03,0,0.04,0c0,0,0,0,0.01,0c0,0,0,0,0,0c0,0,0.01,0,0.01,0c0,0,0,0,0.01,0c0.05,0,0.1-0.04,0.1-0.09
			c0-0.06-0.04-0.1-0.09-0.11L26.34,55.75C26.35,55.75,26.34,55.75,26.34,55.75L26.34,55.75z M28.44,55.8
			C28.44,55.8,28.44,55.8,28.44,55.8l-0.06,0c-0.06,0-0.1,0.05-0.1,0.1c0,0.05,0.05,0.1,0.1,0.1c0,0,0,0,0,0c0.01,0,0.03,0,0.04,0
			c0.01,0,0.01,0,0.02,0c0.05,0,0.1-0.05,0.1-0.1C28.54,55.84,28.5,55.8,28.44,55.8L28.44,55.8z M30.49,55.69
			C30.49,55.69,30.48,55.69,30.49,55.69l-0.06,0.01c-0.06,0-0.1,0.05-0.09,0.11c0,0.05,0.05,0.09,0.1,0.09c0,0,0.01,0,0.01,0
			c0.02,0,0.04,0,0.06,0c0.05-0.01,0.09-0.05,0.09-0.11C30.58,55.73,30.54,55.69,30.49,55.69L30.49,55.69z M32.52,55.44
			c-0.01,0-0.01,0-0.02,0l-0.05,0.01c-0.05,0.01-0.09,0.06-0.08,0.11c0.01,0.05,0.05,0.08,0.1,0.08c0.01,0,0.01,0,0.02,0
			c0.01,0,0.03,0,0.04-0.01c0,0,0.01,0,0.01,0c0.05-0.01,0.09-0.06,0.08-0.11C32.61,55.47,32.57,55.44,32.52,55.44L32.52,55.44z
			 M34.53,55.03c-0.01,0-0.02,0-0.02,0l-0.05,0.01c-0.05,0.01-0.09,0.07-0.07,0.12c0.01,0.05,0.05,0.08,0.1,0.08
			c0.01,0,0.02,0,0.02,0c0.01,0,0.02-0.01,0.04-0.01c0.01,0,0.01,0,0.02,0c0.05-0.01,0.09-0.07,0.07-0.12
			C34.61,55.06,34.57,55.03,34.53,55.03L34.53,55.03z M36.5,54.48c-0.01,0-0.02,0-0.03,0l-0.05,0.02c-0.05,0.02-0.08,0.07-0.07,0.13
			c0.01,0.04,0.05,0.07,0.1,0.07c0.01,0,0.02,0,0.03,0c0,0,0.01,0,0.01,0c0,0,0,0,0,0c0.01,0,0.03-0.01,0.04-0.01
			c0.05-0.02,0.08-0.07,0.06-0.13C36.58,54.51,36.54,54.48,36.5,54.48L36.5,54.48z M38.42,53.79c-0.01,0-0.03,0-0.04,0.01
			l-0.05,0.02c-0.05,0.02-0.08,0.08-0.06,0.13c0.02,0.04,0.05,0.06,0.09,0.06c0.01,0,0.03,0,0.04-0.01c0,0,0.01,0,0.01,0
			c0,0,0,0,0.01,0c0,0,0,0,0,0c0,0,0.01,0,0.01,0c0.01,0,0.02-0.01,0.03-0.01c0.05-0.02,0.08-0.08,0.06-0.13
			C38.5,53.81,38.46,53.79,38.42,53.79L38.42,53.79z M40.29,52.95c-0.01,0-0.03,0-0.04,0.01l-0.05,0.02
			c-0.05,0.02-0.07,0.08-0.05,0.13c0.02,0.04,0.05,0.06,0.09,0.06c0.01,0,0.03,0,0.04-0.01c0.01-0.01,0.03-0.01,0.04-0.02
			c0,0,0.01,0,0.01-0.01c0.05-0.02,0.07-0.08,0.05-0.13C40.37,52.97,40.33,52.95,40.29,52.95L40.29,52.95z M42.1,51.98
			c-0.02,0-0.03,0-0.05,0.01L42,52.02c-0.05,0.03-0.06,0.09-0.04,0.14c0.02,0.03,0.05,0.05,0.09,0.05c0.02,0,0.03,0,0.05-0.01
			c0,0,0.01,0,0.01-0.01c0.01-0.01,0.02-0.01,0.04-0.02c0.05-0.03,0.06-0.09,0.04-0.14C42.16,52,42.13,51.98,42.1,51.98L42.1,51.98z
			 M43.82,50.88c-0.02,0-0.04,0.01-0.06,0.02l-0.04,0.03c-0.05,0.03-0.06,0.09-0.03,0.14c0.02,0.03,0.05,0.04,0.08,0.04
			c0.02,0,0.04-0.01,0.06-0.02c0.01-0.01,0.01-0.01,0.02-0.02l0,0c0,0,0.01,0,0.01-0.01c0.01,0,0.01-0.01,0.01-0.01
			c0.04-0.03,0.06-0.09,0.02-0.14C43.89,50.9,43.85,50.88,43.82,50.88L43.82,50.88z M45.46,49.66c-0.02,0-0.04,0.01-0.06,0.02
			l-0.04,0.03c-0.04,0.03-0.05,0.1-0.02,0.14c0.02,0.02,0.05,0.04,0.08,0.04c0.02,0,0.04-0.01,0.06-0.02
			c0.01-0.01,0.03-0.02,0.04-0.03c0,0,0,0,0,0c0.04-0.03,0.05-0.1,0.02-0.14C45.52,49.67,45.49,49.66,45.46,49.66L45.46,49.66z
			 M47.01,48.32c-0.02,0-0.05,0.01-0.07,0.03l-0.04,0.04c-0.04,0.04-0.04,0.1-0.01,0.14c0.02,0.02,0.05,0.03,0.07,0.03
			c0.02,0,0.05-0.01,0.07-0.03c0.01,0,0.01-0.01,0.02-0.01c0,0,0,0,0,0c0,0,0,0,0,0c0.01-0.01,0.01-0.01,0.02-0.02
			c0.04-0.04,0.04-0.1,0.01-0.14C47.07,48.33,47.04,48.32,47.01,48.32L47.01,48.32z M48.46,46.87c-0.03,0-0.05,0.01-0.07,0.03
			l-0.04,0.04c-0.04,0.04-0.04,0.1,0.01,0.14c0.02,0.02,0.04,0.03,0.07,0.03c0.03,0,0.05-0.01,0.07-0.03
			c0.01-0.01,0.01-0.01,0.02-0.02c0.01-0.01,0.01-0.01,0.02-0.02c0.04-0.04,0.04-0.1-0.01-0.14C48.51,46.88,48.48,46.87,48.46,46.87
			L48.46,46.87z M49.8,45.32c-0.03,0-0.06,0.01-0.08,0.04l-0.03,0.04c-0.03,0.04-0.03,0.11,0.02,0.14c0.02,0.01,0.04,0.02,0.06,0.02
			c0.03,0,0.06-0.01,0.08-0.04c0.01-0.01,0.02-0.03,0.04-0.04c0.03-0.04,0.03-0.11-0.02-0.14C49.84,45.33,49.82,45.32,49.8,45.32
			L49.8,45.32z M51.02,43.68c-0.03,0-0.06,0.02-0.08,0.04l-0.03,0.05c-0.03,0.05-0.02,0.11,0.03,0.14c0.02,0.01,0.04,0.02,0.06,0.02
			c0.03,0,0.06-0.01,0.08-0.04c0-0.01,0.01-0.01,0.01-0.02c0,0,0-0.01,0.01-0.01l0,0c0.01-0.01,0.01-0.01,0.02-0.02
			c0.03-0.05,0.02-0.11-0.03-0.14C51.05,43.68,51.03,43.68,51.02,43.68L51.02,43.68z M52.11,41.95c-0.03,0-0.07,0.02-0.09,0.05
			L52,42.04c-0.03,0.05-0.01,0.11,0.04,0.14c0.02,0.01,0.03,0.01,0.05,0.01c0.03,0,0.07-0.02,0.09-0.05c0,0,0,0,0,0
			c0.01-0.01,0.01-0.02,0.02-0.03l0,0c0,0,0-0.01,0.01-0.01c0.03-0.05,0.01-0.11-0.04-0.14C52.15,41.95,52.13,41.95,52.11,41.95
			L52.11,41.95z M53.08,40.14c-0.04,0-0.07,0.02-0.09,0.06l-0.02,0.05c-0.02,0.05,0,0.11,0.05,0.13c0.01,0.01,0.03,0.01,0.04,0.01
			c0.04,0,0.07-0.02,0.09-0.06c0.01-0.02,0.02-0.03,0.02-0.05c0,0,0,0,0,0c0.02-0.05,0-0.11-0.05-0.13
			C53.11,40.15,53.09,40.14,53.08,40.14L53.08,40.14z M53.91,38.27c-0.04,0-0.08,0.02-0.09,0.06l-0.02,0.05
			c-0.02,0.05,0,0.11,0.06,0.13c0.01,0,0.02,0.01,0.04,0.01c0.04,0,0.08-0.02,0.09-0.06c0.01-0.02,0.01-0.03,0.02-0.05
			c0.02-0.05,0-0.11-0.06-0.13C53.93,38.27,53.92,38.27,53.91,38.27L53.91,38.27z M54.6,36.34c-0.04,0-0.08,0.03-0.1,0.07
			l-0.02,0.05c-0.02,0.05,0.01,0.11,0.06,0.13c0.01,0,0.02,0,0.03,0c0.04,0,0.08-0.03,0.1-0.07c0,0,0,0,0-0.01
			c0-0.01,0-0.01,0.01-0.02c0-0.01,0.01-0.02,0.01-0.03c0.02-0.05-0.01-0.11-0.06-0.13C54.62,36.35,54.61,36.34,54.6,36.34
			L54.6,36.34z M55.15,34.37c-0.05,0-0.09,0.03-0.1,0.08l-0.01,0.05c-0.01,0.05,0.02,0.11,0.07,0.12c0.01,0,0.02,0,0.02,0
			c0.05,0,0.09-0.03,0.1-0.08c0-0.01,0.01-0.02,0.01-0.04c0,0,0,0,0-0.01c0,0,0,0,0,0c0,0,0,0,0,0c0,0,0,0,0-0.01
			c0.01-0.05-0.02-0.11-0.07-0.12C55.16,34.37,55.15,34.37,55.15,34.37L55.15,34.37z M55.54,32.36c-0.05,0-0.09,0.03-0.1,0.08
			l-0.01,0.05c-0.01,0.05,0.03,0.11,0.08,0.11c0.01,0,0.01,0,0.02,0c0.05,0,0.09-0.03,0.1-0.08c0,0,0,0,0,0
			c0-0.02,0.01-0.03,0.01-0.05c0.01-0.05-0.03-0.11-0.08-0.11C55.56,32.36,55.55,32.36,55.54,32.36L55.54,32.36z M55.8,30.33
			c-0.05,0-0.1,0.04-0.1,0.09l0,0.05c0,0.06,0.04,0.1,0.09,0.11c0,0,0.01,0,0.01,0c0.05,0,0.09-0.04,0.1-0.09c0-0.01,0-0.02,0-0.03
			c0-0.01,0-0.01,0-0.02C55.9,30.38,55.86,30.34,55.8,30.33C55.8,30.33,55.8,30.33,55.8,30.33L55.8,30.33z M55.9,28.29
			c-0.05,0-0.1,0.04-0.1,0.1l0,0.05c0,0.06,0.04,0.1,0.1,0.1c0,0,0,0,0,0c0.05,0,0.1-0.04,0.1-0.1c0,0,0,0,0,0c0-0.01,0-0.03,0-0.04
			c0,0,0,0,0,0c0,0,0,0,0-0.01s0,0,0-0.01C56,28.33,55.95,28.29,55.9,28.29C55.9,28.29,55.9,28.29,55.9,28.29L55.9,28.29z
			 M55.85,26.24C55.85,26.24,55.85,26.24,55.85,26.24c-0.06,0-0.1,0.05-0.1,0.11l0,0.05c0,0.05,0.05,0.09,0.1,0.09c0,0,0,0,0.01,0
			c0.06,0,0.1-0.05,0.09-0.11c0,0,0,0,0,0c0,0,0-0.01,0-0.01c0,0,0,0,0,0c0-0.01,0-0.01,0-0.02c0-0.01,0-0.01,0-0.02
			C55.95,26.28,55.9,26.24,55.85,26.24L55.85,26.24z M55.66,24.2c0,0-0.01,0-0.01,0c-0.05,0.01-0.09,0.06-0.09,0.11l0.01,0.05
			c0.01,0.05,0.05,0.09,0.1,0.09c0,0,0.01,0,0.01,0c0.05-0.01,0.09-0.06,0.09-0.11c0-0.01,0-0.02,0-0.04c0,0,0,0,0,0c0,0,0,0,0,0
			c0,0,0-0.01,0-0.01C55.75,24.24,55.71,24.2,55.66,24.2L55.66,24.2z M55.31,22.18c-0.01,0-0.01,0-0.02,0
			c-0.05,0.01-0.09,0.06-0.08,0.12l0.01,0.05c0.01,0.05,0.05,0.08,0.1,0.08c0.01,0,0.01,0,0.02,0c0.05-0.01,0.09-0.06,0.08-0.12
			c0,0,0,0,0,0c0-0.02-0.01-0.03-0.01-0.05C55.4,22.21,55.36,22.18,55.31,22.18L55.31,22.18z M54.82,20.2c-0.01,0-0.02,0-0.03,0
			c-0.05,0.02-0.08,0.07-0.07,0.12l0.01,0.05c0.01,0.04,0.05,0.07,0.1,0.07c0.01,0,0.02,0,0.03,0c0.05-0.02,0.08-0.07,0.07-0.12
			c-0.01-0.02-0.01-0.04-0.02-0.05C54.91,20.22,54.87,20.2,54.82,20.2L54.82,20.2z M54.19,18.25c-0.01,0-0.02,0-0.03,0.01
			c-0.05,0.02-0.08,0.08-0.06,0.13l0.02,0.05c0.01,0.04,0.05,0.07,0.09,0.07c0.01,0,0.02,0,0.03-0.01c0.05-0.02,0.08-0.08,0.06-0.13
			c0-0.01-0.01-0.02-0.01-0.02c0-0.01-0.01-0.02-0.01-0.03C54.26,18.27,54.23,18.25,54.19,18.25L54.19,18.25z M53.41,16.36
			c-0.01,0-0.03,0-0.04,0.01c-0.05,0.02-0.07,0.08-0.05,0.13l0.02,0.05c0.02,0.04,0.05,0.06,0.09,0.06c0.01,0,0.03,0,0.04-0.01
			c0.05-0.02,0.07-0.08,0.05-0.13c-0.01-0.02-0.02-0.03-0.02-0.05C53.48,16.38,53.44,16.36,53.41,16.36L53.41,16.36z M52.49,14.53
			c-0.02,0-0.03,0-0.05,0.01c-0.05,0.03-0.07,0.09-0.04,0.14l0.03,0.05c0.02,0.03,0.05,0.05,0.09,0.05c0.02,0,0.03,0,0.05-0.01
			c0.05-0.03,0.07-0.09,0.04-0.14c0,0,0,0,0-0.01c0-0.01-0.01-0.01-0.01-0.02c0-0.01-0.01-0.01-0.01-0.02
			C52.56,14.54,52.53,14.53,52.49,14.53L52.49,14.53z M51.44,12.77c-0.02,0-0.04,0.01-0.05,0.02c-0.05,0.03-0.06,0.09-0.03,0.14
			l0.03,0.05c0.02,0.03,0.05,0.05,0.08,0.05c0.02,0,0.04-0.01,0.05-0.02c0.05-0.03,0.06-0.09,0.03-0.14c0,0,0,0,0,0
			c-0.01-0.01-0.02-0.03-0.03-0.04c0,0,0,0,0,0C51.51,12.78,51.48,12.77,51.44,12.77L51.44,12.77z M50.27,11.09
			c-0.02,0-0.04,0.01-0.06,0.02c-0.04,0.03-0.05,0.1-0.02,0.14l0.03,0.04c0.02,0.03,0.05,0.04,0.08,0.04c0.02,0,0.04-0.01,0.06-0.02
			c0.04-0.03,0.05-0.1,0.02-0.14c0,0-0.01-0.01-0.01-0.01c0,0,0,0-0.01-0.01c0,0,0,0,0,0c-0.01-0.01-0.01-0.01-0.02-0.02
			C50.33,11.1,50.3,11.09,50.27,11.09L50.27,11.09z M48.98,9.5c-0.02,0-0.05,0.01-0.07,0.02c-0.04,0.04-0.05,0.1-0.01,0.14
			l0.04,0.04c0.02,0.02,0.05,0.03,0.08,0.03c0.02,0,0.05-0.01,0.07-0.02c0.04-0.04,0.05-0.1,0.01-0.14
			c-0.01-0.01-0.02-0.02-0.03-0.04c0,0,0,0,0-0.01C49.03,9.51,49,9.5,48.98,9.5L48.98,9.5z M47.57,8.01c-0.03,0-0.05,0.01-0.07,0.03
			c-0.04,0.04-0.04,0.1,0,0.14l0.04,0.04c0.02,0.02,0.04,0.03,0.07,0.03c0.03,0,0.05-0.01,0.07-0.03c0.04-0.04,0.04-0.1,0-0.14
			c0,0,0,0,0,0c0,0-0.01-0.01-0.01-0.01c-0.01-0.01-0.02-0.02-0.02-0.02C47.62,8.02,47.59,8.01,47.57,8.01L47.57,8.01z M46.06,6.63
			c-0.03,0-0.06,0.01-0.08,0.04c-0.04,0.04-0.03,0.11,0.01,0.14l0.04,0.04c0.02,0.02,0.04,0.02,0.06,0.02
			c0.03,0,0.06-0.01,0.08-0.04c0.04-0.04,0.03-0.11-0.01-0.14c0,0-0.01,0-0.01-0.01c-0.01-0.01-0.02-0.02-0.03-0.03
			C46.1,6.64,46.08,6.63,46.06,6.63L46.06,6.63z M44.45,5.36c-0.03,0-0.06,0.01-0.08,0.04c-0.03,0.04-0.02,0.11,0.02,0.14l0.04,0.03
			c0.02,0.01,0.04,0.02,0.06,0.02c0.03,0,0.06-0.01,0.08-0.04c0.03-0.04,0.02-0.11-0.02-0.14c-0.01-0.01-0.03-0.02-0.04-0.03
			C44.49,5.37,44.47,5.36,44.45,5.36L44.45,5.36z M42.76,4.22c-0.03,0-0.07,0.02-0.08,0.05c-0.03,0.05-0.01,0.11,0.03,0.14
			l0.05,0.03c0.02,0.01,0.03,0.02,0.05,0.02c0.03,0,0.07-0.02,0.08-0.05c0.03-0.05,0.02-0.11-0.03-0.14
			c-0.02-0.01-0.03-0.02-0.05-0.03C42.79,4.22,42.77,4.22,42.76,4.22L42.76,4.22z M40.98,3.2c-0.04,0-0.07,0.02-0.09,0.05
			c-0.03,0.05-0.01,0.11,0.04,0.14l0.05,0.03c0.01,0.01,0.03,0.01,0.05,0.01c0.04,0,0.07-0.02,0.09-0.05
			c0.03-0.05,0.01-0.11-0.04-0.14c-0.02-0.01-0.03-0.02-0.05-0.03c0,0,0,0,0,0C41.01,3.2,41,3.2,40.98,3.2L40.98,3.2z M39.14,2.31
			c-0.04,0-0.08,0.02-0.09,0.06c-0.02,0.05,0,0.11,0.05,0.13l0.05,0.02c0.01,0.01,0.03,0.01,0.04,0.01c0.04,0,0.08-0.02,0.09-0.06
			c0.02-0.05,0-0.11-0.05-0.13c0,0-0.01,0-0.01-0.01c-0.01,0-0.02-0.01-0.02-0.01c0,0-0.01,0-0.01-0.01
			C39.16,2.31,39.15,2.31,39.14,2.31L39.14,2.31z M37.23,1.56c-0.04,0-0.08,0.03-0.09,0.07c-0.02,0.05,0.01,0.11,0.06,0.13
			l0.05,0.02c0.01,0,0.02,0.01,0.03,0.01c0.04,0,0.08-0.03,0.09-0.07c0.02-0.05-0.01-0.11-0.06-0.13c-0.01,0-0.03-0.01-0.04-0.01
			c0,0-0.01,0-0.01,0C37.25,1.56,37.24,1.56,37.23,1.56L37.23,1.56z M35.27,0.96c-0.04,0-0.08,0.03-0.1,0.07
			c-0.01,0.05,0.02,0.11,0.07,0.12l0.05,0.01c0.01,0,0.02,0,0.03,0c0.04,0,0.08-0.03,0.1-0.07c0.01-0.05-0.02-0.11-0.07-0.12
			c-0.02,0-0.03-0.01-0.05-0.01c0,0,0,0-0.01,0C35.29,0.96,35.28,0.96,35.27,0.96L35.27,0.96z M33.28,0.5
			c-0.05,0-0.09,0.03-0.1,0.08c-0.01,0.05,0.03,0.11,0.08,0.12l0.05,0.01c0.01,0,0.01,0,0.02,0c0.05,0,0.09-0.03,0.1-0.08
			c0.01-0.05-0.02-0.11-0.08-0.12c-0.01,0-0.02,0-0.04-0.01c-0.01,0-0.01,0-0.02,0C33.29,0.5,33.29,0.5,33.28,0.5L33.28,0.5z
			 M31.26,0.19c-0.05,0-0.09,0.04-0.1,0.09c-0.01,0.05,0.03,0.1,0.09,0.11l0.05,0.01c0,0,0.01,0,0.01,0c0.05,0,0.09-0.04,0.1-0.09
			c0.01-0.05-0.03-0.1-0.09-0.11c-0.01,0-0.02,0-0.03,0c-0.01,0-0.02,0-0.02,0C31.26,0.19,31.26,0.19,31.26,0.19L31.26,0.19z
			 M29.22,0.03c-0.05,0-0.1,0.04-0.1,0.1c0,0.06,0.04,0.1,0.1,0.1l0.05,0c0,0,0,0,0,0c0.05,0,0.1-0.04,0.1-0.1
			c0-0.06-0.04-0.1-0.1-0.1C29.26,0.03,29.24,0.03,29.22,0.03C29.22,0.03,29.22,0.03,29.22,0.03C29.22,0.03,29.22,0.03,29.22,0.03
			L29.22,0.03z"/>
	</g>
	<g class="st2">
		<path class="st3" d="M55.8,0.2v55.6H0.2V0.2H55.8 M56,0H0v56h56V0L56,0z"/>
	</g>
</g>
<linearGradient id="SVGID_1_" gradientUnits="userSpaceOnUse" x1="27.5982" y1="45.0173" x2="42.9871" y2="2.4424" gradientTransform="matrix(1 0.4158 0 1 -1.000000e-04 -11.6806)">
	<stop  offset="0" style="stop-color:#4F6CFF;stop-opacity:0.5"/>
	<stop  offset="0.1237" style="stop-color:#4F81FF;stop-opacity:0.5688"/>
	<stop  offset="0.485" style="stop-color:#4FB8FF;stop-opacity:0.7697"/>
	<stop  offset="0.7541" style="stop-color:#4FDBFF;stop-opacity:0.9194"/>
	<stop  offset="0.8991" style="stop-color:#4FE8FF"/>
</linearGradient>
<path style="fill:url(#SVGID_1_);" d="M41.19,50.93l-12.59-5.38C28.24,45.4,28,45.04,28,44.64V3.44c0-0.72,0.73-1.2,1.39-0.92
	l12.59,5.38c0.37,0.16,0.61,0.52,0.61,0.92v41.2C42.59,50.73,41.85,51.21,41.19,50.93z"/>
<g>
	<path class="st13" d="M21.17,17.67c1.81,0,3.28-1.49,3.28-3.32c0-1.83-1.47-3.32-3.28-3.32c-1.81,0-3.29,1.49-3.29,3.32
		C17.89,16.18,19.36,17.67,21.17,17.67z"/>
	<path class="st13" d="M31.24,28.57l-5.6-2.74l-2.51-5.62c-0.16-0.35-0.43-0.6-0.76-0.74c-0.25-0.19-0.53-0.32-0.85-0.38l-2.8-0.51
		c-0.32-0.06-0.64-0.03-0.93,0.06c-0.26,0-0.52,0.06-0.75,0.2l-5.69,3.44c-0.37,0.22-0.6,0.59-0.67,0.99c0,0,0,0,0,0l-1.62,6.49
		c-0.19,0.77,0.27,1.55,1.04,1.75c0.76,0.19,1.54-0.27,1.73-1.05l1.5-6.03l2.54-1.53l-1.47,8.14c-0.16,0.89,0.28,1.75,1.02,2.17
		l7.32,6.3l1.69,8.75c0.18,0.98,1.12,1.63,2.09,1.44c0.97-0.18,1.61-1.13,1.43-2.11l-1.8-9.34c-0.05-0.28-0.17-0.53-0.33-0.75
		c-0.09-0.14-0.2-0.27-0.33-0.39l-4.61-3.97c0.18-0.25,0.32-0.53,0.37-0.86l1.2-6.66l0.83,1.86c0.16,0.36,0.46,0.63,0.8,0.76
		l5.93,2.9c0.71,0.35,1.56,0.05,1.91-0.67C32.24,29.77,31.95,28.91,31.24,28.57z"/>
	<path class="st13" d="M13.1,40.19l-5.68,6.97c-0.63,0.77-0.53,1.9,0.23,2.54c0.76,0.64,1.89,0.54,2.52-0.23l5.96-7.31
		c0.24-0.26,0.4-0.6,0.45-0.98l0.68-5.04l-3.28-2.47L13.1,40.19z"/>
</g>
<path class="st13" d="M45.6,31.84l3.1-3.63c0.26-0.31,0.04-0.78-0.36-0.78H36.83c-0.26,0-0.47,0.21-0.47,0.47v1.03
	c0,0.26,0.21,0.47,0.47,0.47h7.47c0.26,0,0.47,0.21,0.47,0.47v1.66C44.77,31.97,45.31,32.18,45.6,31.84z"/>
<path class="st13" d="M39.57,20.89l-3.1,3.63c-0.26,0.31-0.04,0.78,0.36,0.78h11.51c0.26,0,0.47-0.21,0.47-0.47V23.8
	c0-0.26-0.21-0.47-0.47-0.47h-7.47c-0.26,0-0.47-0.21-0.47-0.47v-1.66C40.4,20.75,39.86,20.55,39.57,20.89z"/>
</svg>
