<?xml version="1.0" encoding="utf-8"?>
<!-- Generator: Adobe Illustrator 23.0.0, SVG Export Plug-In . SVG Version: 6.00 Build 0)  -->
<svg version="1.1" id="图层_1" xmlns="http://www.w3.org/2000/svg" xmlns:xlink="http://www.w3.org/1999/xlink" x="0px" y="0px"
	 viewBox="0 0 56 56" style="enable-background:new 0 0 56 56;" xml:space="preserve">
<style type="text/css">
	.st0{fill:#E4EEFE;}
	.st1{fill:url(#SVGID_1_);}
	.st2{fill:none;stroke:#1B3B65;stroke-width:1.6;stroke-linecap:round;stroke-linejoin:round;stroke-miterlimit:10;}
	.st3{fill:url(#SVGID_2_);}
	.st4{fill:url(#SVGID_3_);}
	.st5{fill:#1B3B65;}
	.st6{fill:url(#SVGID_4_);}
	.st7{fill:url(#SVGID_5_);}
	.st8{fill:url(#SVGID_6_);}
	.st9{fill:url(#SVGID_7_);}
	.st10{opacity:0.5;fill:url(#SVGID_8_);}
	.st11{fill:#FFFFFF;}
	.st12{display:none;}
	.st13{display:inline;}
	.st14{fill:#D8D8D8;}
	.st15{opacity:0.5;fill:url(#SVGID_9_);}
	.st16{opacity:0.5;fill:url(#SVGID_10_);}
	.st17{opacity:0.5;fill:url(#SVGID_11_);}
	.st18{opacity:0.5;fill:url(#SVGID_12_);}
	.st19{display:none;opacity:0.5;fill:url(#SVGID_13_);}
	.st20{display:none;fill:#E4EEFE;}
	.st21{opacity:0.5;}
	.st22{fill:url(#SVGID_14_);}
	.st23{fill:url(#SVGID_15_);}
	.st24{fill:url(#SVGID_16_);}
	.st25{fill:url(#SVGID_17_);}
	.st26{fill:url(#SVGID_18_);}
	.st27{fill:url(#SVGID_19_);}
	.st28{display:inline;fill:#E4EEFE;}
	.st29{display:none;fill:#1B3B65;}
	.st30{opacity:0.5;fill:url(#SVGID_20_);}
	.st31{fill:url(#SVGID_21_);}
	.st32{fill:none;stroke:#FFFFFF;stroke-width:2;stroke-linecap:round;stroke-miterlimit:10;}
	.st33{fill:none;stroke:#FFFFFF;stroke-width:2;stroke-linecap:square;stroke-miterlimit:10;}
	.st34{fill:none;stroke:#1B3B65;stroke-width:1.6;stroke-linecap:round;stroke-miterlimit:10;}
	.st35{fill:url(#SVGID_22_);}
	.st36{fill:url(#SVGID_23_);}
	.st37{fill:none;stroke:#FFFFFF;stroke-width:1.6;stroke-linecap:square;stroke-miterlimit:10;}
	.st38{fill:url(#SVGID_24_);}
	.st39{fill:none;stroke:#1B3B65;stroke-width:1.6;stroke-miterlimit:10;}
	.st40{fill:url(#SVGID_25_);}
	.st41{fill:url(#SVGID_26_);}
	.st42{fill:url(#SVGID_27_);}
	.st43{fill:url(#SVGID_28_);}
	.st44{fill:url(#SVGID_29_);}
	.st45{opacity:0.4;fill:#BDD8FF;}
	.st46{fill:none;stroke:#727171;stroke-width:2.6311;stroke-linecap:round;stroke-linejoin:round;stroke-miterlimit:10;}
	.st47{fill:none;stroke:#727171;stroke-width:2.46;stroke-linecap:round;stroke-linejoin:round;stroke-miterlimit:10;}
	.st48{fill:#3A80FC;}
	.st49{fill:#727171;}
	.st50{fill:none;stroke:#00E1B4;stroke-width:2.1095;stroke-linecap:round;stroke-linejoin:round;stroke-miterlimit:10;}
	.st51{fill:none;stroke:#264A9A;stroke-width:2;stroke-linecap:round;stroke-linejoin:round;stroke-miterlimit:10;}
	.st52{fill:#264A9A;}
	.st53{fill:none;stroke:#264A9A;stroke-width:2.46;stroke-linecap:round;stroke-linejoin:round;stroke-miterlimit:10;}
	.st54{fill:none;stroke:#727171;stroke-width:2.46;stroke-linecap:round;stroke-linejoin:round;stroke-dasharray:34.5421,23.0282;}
	.st55{fill:#4FE8FF;}
	.st56{display:none;fill:#FFFFFF;}
	.st57{fill:url(#SVGID_30_);}
	.st58{fill:none;stroke:#1B3B65;stroke-width:1.6;stroke-linecap:round;stroke-linejoin:round;stroke-dasharray:13.9698,9.3132;}
	.st59{fill:url(#SVGID_31_);}
	.st60{fill:#4FD6FF;}
	.st61{fill:none;stroke:#FFFFFF;stroke-width:1.6;stroke-linecap:round;stroke-linejoin:round;}
	.st62{fill:none;stroke:#FFFFFF;stroke-width:1.6;stroke-linecap:round;stroke-linejoin:round;stroke-dasharray:0,4.5505;}
	.st63{fill:none;stroke:#FFFFFF;stroke-width:1.6;stroke-linecap:round;stroke-linejoin:round;stroke-dasharray:0,4.5504;}
	.st64{fill:none;stroke:#264A9A;stroke-width:1.0762;stroke-linecap:round;stroke-linejoin:round;stroke-miterlimit:10;}
	.st65{fill:none;}
	.st66{fill:url(#SVGID_32_);}
	.st67{fill:url(#SVGID_33_);stroke:#1B3B65;stroke-width:2;stroke-linecap:round;stroke-miterlimit:10;}
	.st68{fill:none;stroke:#00E1B4;stroke-width:2.132;stroke-linecap:square;stroke-miterlimit:10;}
	.st69{fill:none;stroke:url(#SVGID_34_);stroke-width:2;stroke-linecap:round;stroke-miterlimit:10;}
	.st70{fill:none;stroke:#1B3B65;stroke-width:2;stroke-linecap:round;stroke-miterlimit:10;}
	.st71{fill:url(#SVGID_35_);}
	.st72{fill:url(#SVGID_36_);}
	.st73{fill:url(#SVGID_37_);}
	.st74{fill-rule:evenodd;clip-rule:evenodd;fill:#1B3B65;}
	.st75{fill:url(#SVGID_38_);}
	.st76{fill:url(#SVGID_39_);}
	.st77{fill:url(#SVGID_40_);}
	.st78{fill:url(#SVGID_41_);}
	.st79{fill:url(#SVGID_42_);}
	.st80{fill:url(#SVGID_43_);}
	.st81{fill:url(#SVGID_44_);}
	.st82{fill:url(#SVGID_45_);}
	.st83{fill:url(#SVGID_46_);}
	.st84{opacity:0.5;fill:url(#SVGID_47_);}
	.st85{fill:url(#SVGID_48_);}
	.st86{fill:none;stroke:url(#SVGID_49_);stroke-width:1.6;stroke-linecap:round;stroke-miterlimit:10;}
	.st87{fill:none;stroke:url(#SVGID_50_);stroke-width:1.6;stroke-linecap:round;stroke-miterlimit:10;}
	.st88{fill:none;stroke:url(#SVGID_51_);stroke-width:1.6;stroke-linecap:round;stroke-miterlimit:10;}
	.st89{fill:url(#SVGID_52_);}
	.st90{fill:url(#SVGID_53_);}
	.st91{fill:#FCFCFC;}
	.st92{fill:none;stroke:#FFFFFF;stroke-width:1.6;stroke-linecap:round;stroke-miterlimit:10;}
	.st93{fill:url(#SVGID_54_);}
	.st94{fill:url(#SVGID_55_);}
	.st95{fill:url(#SVGID_56_);stroke:#FFFFFF;stroke-width:1.6;stroke-miterlimit:10;}
	.st96{fill:none;stroke:#FFFFFF;stroke-width:1.6;stroke-miterlimit:10;}
	.st97{fill:url(#SVGID_57_);}
	
		.st98{display:none;fill:none;stroke:#1B3B65;stroke-width:1.6188;stroke-linecap:round;stroke-linejoin:round;stroke-miterlimit:10;}
	.st99{fill:url(#SVGID_58_);}
	.st100{fill:url(#SVGID_59_);}
	.st101{fill:none;stroke:#FFFFFF;stroke-width:1.5;stroke-linecap:round;stroke-miterlimit:10;}
	.st102{fill:url(#SVGID_60_);}
	.st103{fill:url(#SVGID_61_);}
	.st104{fill:url(#SVGID_62_);}
	.st105{fill:url(#SVGID_63_);}
	.st106{fill:url(#SVGID_64_);}
	.st107{fill:url(#SVGID_65_);}
	.st108{fill:url(#SVGID_66_);}
	.st109{fill:url(#SVGID_67_);}
	.st110{fill:url(#SVGID_68_);}
	.st111{fill:url(#SVGID_69_);}
	.st112{fill:url(#SVGID_70_);}
	.st113{fill:url(#SVGID_71_);}
	.st114{fill:url(#SVGID_72_);}
	.st115{fill:url(#SVGID_73_);}
	.st116{fill:url(#SVGID_74_);}
	.st117{fill:url(#SVGID_75_);}
	.st118{fill:none;stroke:#1B3B65;stroke-width:1.7123;stroke-linecap:round;stroke-linejoin:round;stroke-miterlimit:10;}
	.st119{display:inline;fill:#FFFFFF;}
	.st120{fill:none;stroke:#1B3B65;stroke-width:1.5278;stroke-linecap:round;stroke-linejoin:round;stroke-miterlimit:10;}
	.st121{opacity:0.5;fill:url(#SVGID_76_);}
	.st122{fill:#1B3B65;stroke:#1B3B65;stroke-miterlimit:10;}
	.st123{fill:url(#SVGID_77_);}
	.st124{display:none;fill:none;stroke:#FFFFFF;stroke-width:1.6;stroke-linecap:round;stroke-linejoin:round;stroke-miterlimit:10;}
	.st125{display:none;fill:none;stroke:url(#SVGID_78_);stroke-width:2;stroke-linecap:round;stroke-miterlimit:10;}
	.st126{display:none;fill:none;stroke:url(#SVGID_79_);stroke-width:2;stroke-linecap:round;stroke-miterlimit:10;}
	.st127{fill:#1B3B65;stroke:#1B3B65;stroke-width:1.6;stroke-linecap:round;stroke-linejoin:round;stroke-miterlimit:10;}
	.st128{fill:none;stroke:url(#SVGID_80_);stroke-width:2;stroke-linecap:round;stroke-miterlimit:10;}
	.st129{fill:#FFFFFF;stroke:#1B3B65;stroke-width:1.6;stroke-miterlimit:10;}
	.st130{fill:url(#SVGID_81_);}
	.st131{fill:none;stroke:#FFFFFF;stroke-width:1.6;stroke-linecap:round;stroke-linejoin:round;stroke-miterlimit:10;}
	.st132{fill:none;stroke:#1B3B65;stroke-width:1.5;stroke-linecap:round;stroke-linejoin:round;stroke-miterlimit:10;}
	.st133{fill:url(#SVGID_82_);}
	.st134{fill:url(#SVGID_83_);}
	.st135{fill:none;stroke:#1B3B65;stroke-width:1.2958;stroke-linecap:round;stroke-linejoin:round;stroke-miterlimit:10;}
	.st136{fill:none;stroke:#1B3B65;stroke-width:1.2958;stroke-linecap:round;stroke-linejoin:round;}
	.st137{fill:none;stroke:#1B3B65;stroke-width:1.2958;stroke-linecap:round;stroke-linejoin:round;stroke-dasharray:6.4418,6.4418;}
	.st138{fill:none;stroke:#1B3B65;stroke-width:1.6;stroke-linecap:round;stroke-linejoin:round;}
	.st139{fill:none;stroke:#1B3B65;stroke-width:1.6;stroke-linecap:round;stroke-linejoin:round;stroke-dasharray:8.2219,8.2219;}
	.st140{display:none;fill:url(#SVGID_84_);}
	.st141{display:none;fill:url(#SVGID_85_);}
	.st142{fill:#1B3B65;stroke:#E4EEFE;stroke-width:1.3002;stroke-linecap:round;stroke-linejoin:round;stroke-miterlimit:10;}
	.st143{fill:#E4EEFE;stroke:#1B3B65;stroke-width:1.4;stroke-linecap:round;stroke-linejoin:round;stroke-miterlimit:10;}
	
		.st144{display:none;fill:#E4EEFE;stroke:#1B3B65;stroke-width:1.3002;stroke-linecap:round;stroke-linejoin:round;stroke-miterlimit:10;}
	.st145{fill:none;stroke:#1B3B65;stroke-width:1.3869;stroke-linecap:round;stroke-linejoin:round;stroke-miterlimit:10;}
	.st146{fill:none;stroke:#E4EEFE;stroke-width:1.6;stroke-linecap:round;stroke-linejoin:round;stroke-miterlimit:10;}
	.st147{fill:url(#SVGID_86_);}
</style>
<circle class="st0" cx="34" cy="34" r="20"/>
<linearGradient id="SVGID_1_" gradientUnits="userSpaceOnUse" x1="28" y1="23.3414" x2="28" y2="6.5" gradientTransform="matrix(0 1 -1 0 55.4664 -0.5336)">
	<stop  offset="0.145" style="stop-color:#4F6CFF;stop-opacity:0"/>
	<stop  offset="0.3177" style="stop-color:#4F6FFF;stop-opacity:0.2342"/>
	<stop  offset="0.4467" style="stop-color:#4F79FF;stop-opacity:0.4092"/>
	<stop  offset="0.5615" style="stop-color:#4F89FF;stop-opacity:0.5649"/>
	<stop  offset="0.6681" style="stop-color:#4F9FFF;stop-opacity:0.7094"/>
	<stop  offset="0.7689" style="stop-color:#4FBDFF;stop-opacity:0.8462"/>
	<stop  offset="0.8643" style="stop-color:#4FE0FF;stop-opacity:0.9754"/>
	<stop  offset="0.8824" style="stop-color:#4FE8FF"/>
</linearGradient>
<polygon class="st1" points="32.13,48.16 32.13,6.78 48.97,6.78 48.97,48.16 "/>
<linearGradient id="SVGID_2_" gradientUnits="userSpaceOnUse" x1="28" y1="34.0613" x2="28" y2="17.2199" gradientTransform="matrix(0 -1 1 0 -9.8953 55.4664)">
	<stop  offset="0.145" style="stop-color:#4F6CFF;stop-opacity:0"/>
	<stop  offset="0.3177" style="stop-color:#4F6FFF;stop-opacity:0.2342"/>
	<stop  offset="0.4467" style="stop-color:#4F79FF;stop-opacity:0.4092"/>
	<stop  offset="0.5615" style="stop-color:#4F89FF;stop-opacity:0.5649"/>
	<stop  offset="0.6681" style="stop-color:#4F9FFF;stop-opacity:0.7094"/>
	<stop  offset="0.7689" style="stop-color:#4FBDFF;stop-opacity:0.8462"/>
	<stop  offset="0.8643" style="stop-color:#4FE0FF;stop-opacity:0.9754"/>
	<stop  offset="0.8824" style="stop-color:#4FE8FF"/>
</linearGradient>
<polygon class="st3" points="24.17,6.78 24.17,48.16 7.32,48.16 7.32,6.78 "/>
<path class="st5" d="M46.55,26.85h-4.12l-2.58-5.19c-0.14-0.27-0.41-0.44-0.72-0.44h-6.62v-4.68c0-0.44-0.36-0.8-0.8-0.8H9.5
	c-0.44,0-0.8,0.36-0.8,0.8v18.92c0,0.44,0.36,0.8,0.8,0.8h5.67c0.18-2.95,2.62-5.29,5.62-5.29c3,0,5.44,2.34,5.62,5.29h5.33h2.41
	c0.18-2.95,2.62-5.29,5.62-5.29s5.44,2.34,5.62,5.29h1.18c0.44,0,0.8-0.36,0.8-0.8v-7.81C47.35,27.21,47,26.85,46.55,26.85z
	 M35.81,27.65v-4.83h2.83l2.4,4.83H35.81z"/>
<g>
	<g>
		<line class="st138" x1="10.18" y1="42.41" x2="15.85" y2="42.41"/>
		<line class="st139" x1="24.08" y1="42.41" x2="36.41" y2="42.41"/>
		<line class="st138" x1="40.52" y1="42.41" x2="46.2" y2="42.41"/>
	</g>
</g>
<rect x="10.51" y="28.4" class="st5" width="5" height="5"/>
<path class="st5" d="M39.75,32.26c-2.39,0-4.33,1.94-4.33,4.33c0,2.39,1.94,4.33,4.33,4.33c2.39,0,4.33-1.94,4.33-4.33
	C44.09,34.21,42.15,32.26,39.75,32.26z M39.75,38.16c-0.86,0-1.56-0.7-1.56-1.56c0-0.86,0.7-1.56,1.56-1.56
	c0.86,0,1.56,0.7,1.56,1.56C41.32,37.46,40.62,38.16,39.75,38.16z"/>
<rect x="15.33" y="17.12" class="st143" width="5.19" height="5.19"/>
<rect x="20.52" y="17.12" class="st143" width="5.19" height="5.19"/>
<rect x="15.82" y="28.4" class="st144" width="5" height="5"/>
<rect x="10.38" y="27.49" class="st143" width="5.19" height="5.19"/>
<rect x="20.82" y="28.4" class="st144" width="5" height="5"/>
<rect x="26" y="27.49" class="st143" width="5.19" height="5.19"/>
<rect x="12.97" y="22.31" class="st143" width="5.19" height="5.19"/>
<rect x="17.92" y="22.31" class="st143" width="5.19" height="5.19"/>
<rect x="23.11" y="22.31" class="st143" width="5.19" height="5.19"/>
<path class="st5" d="M20.78,32.26c-2.39,0-4.33,1.94-4.33,4.33c0,2.39,1.94,4.33,4.33,4.33c2.39,0,4.33-1.94,4.33-4.33
	C25.12,34.21,23.18,32.26,20.78,32.26z M20.78,38.16c-0.86,0-1.56-0.7-1.56-1.56c0-0.86,0.7-1.56,1.56-1.56
	c0.86,0,1.56,0.7,1.56,1.56C22.35,37.46,21.65,38.16,20.78,38.16z"/>
<path class="st5" d="M20.78,32.26c-2.39,0-4.33,1.94-4.33,4.33c0,2.39,1.94,4.33,4.33,4.33c2.39,0,4.33-1.94,4.33-4.33
	C25.12,34.21,23.18,32.26,20.78,32.26z M20.78,38.16c-0.86,0-1.56-0.7-1.56-1.56c0-0.86,0.7-1.56,1.56-1.56
	c0.86,0,1.56,0.7,1.56,1.56C22.35,37.46,21.65,38.16,20.78,38.16z"/>
<g>
	<g>
		<path class="st34" d="M7.5,12.59V7.12c0-0.25,0.21-0.46,0.46-0.46h5.07"/>
		<path class="st34" d="M43.34,6.66h5.07c0.25,0,0.46,0.21,0.46,0.46v5.47"/>
	</g>
	<g>
		<path class="st34" d="M48.88,42.41v5.47c0,0.25-0.21,0.46-0.46,0.46h-5.07"/>
		<path class="st34" d="M13.03,48.34H7.96c-0.25,0-0.46-0.21-0.46-0.46v-5.47"/>
	</g>
</g>
<polyline class="st0" points="20.77,30.96 20.77,27.49 15.59,27.49 15.59,32.68 "/>
<polyline class="st0" points="25.98,32.68 25.98,27.49 20.79,27.49 20.79,30.97 "/>
<path class="st5" d="M25.98,26.79h-5.19c0,0-0.01,0-0.01,0c0,0-0.01,0-0.01,0h-5.19c-0.39,0-0.7,0.31-0.7,0.7v5.18
	c0,0.39,0.31,0.7,0.7,0.7c0.39,0,0.7-0.31,0.7-0.7v-4.48h3.79v2.77c0,0.02,0.01,0.03,0.01,0.05c0.23-0.03,0.47-0.05,0.71-0.05
	c0.23,0,0.46,0.02,0.69,0.05c0-0.02,0.01-0.03,0.01-0.05v-2.77h3.79v4.48c0,0.39,0.31,0.7,0.7,0.7s0.7-0.31,0.7-0.7v-5.18
	C26.68,27.11,26.37,26.79,25.98,26.79z"/>
</svg>
